<?xml version="1.0" encoding="iso-8859-1"?>
<!-- Generator: Adobe Illustrator 19.0.0, SVG Export Plug-In . SVG Version: 6.00 Build 0)  -->
<svg version="1.1" id="Layer_1" xmlns="http://www.w3.org/2000/svg" xmlns:xlink="http://www.w3.org/1999/xlink" x="0px" y="0px"
	 viewBox="0 0 206.059 206.059" style="enable-background:new 0 0 206.059 206.059;" xml:space="preserve">
<g>
	<g>
		<g>
			<path d="M173.737,16.162H64.646V4.04c0-2.233-1.809-4.04-4.04-4.04H44.444c-2.231,0-4.04,1.807-4.04,4.04v12.121h-8.081
				c-2.231,0-4.04,1.807-4.04,4.04v96.97c0,2.233,1.809,4.04,4.04,4.04h8.081v80.808c0,2.233,1.809,4.04,4.04,4.04h16.162
				c2.231,0,4.04-1.807,4.04-4.04v-80.808h109.091c2.231,0,4.04-1.807,4.04-4.04v-96.97
				C177.778,17.969,175.969,16.162,173.737,16.162z M48.484,8.081h8.081v8.081h-8.081V8.081z M56.565,197.98h-8.081v-76.768h8.081
				V197.98z M169.697,113.131H60.606H44.444h-8.081V24.242h8.081h16.162h109.091V113.131z"/>
			<path d="M76.768,80.808h12.121v12.121c0,2.233,1.809,4.04,4.04,4.04h16.162c2.231,0,4.04-1.807,4.04-4.04V80.808h12.121
				c2.231,0,4.04-1.807,4.04-4.04V60.606c0-2.233-1.809-4.04-4.04-4.04H113.13V44.444c0-2.233-1.809-4.04-4.04-4.04H92.929
				c-2.231,0-4.04,1.807-4.04,4.04v12.121H76.768c-2.231,0-4.04,1.807-4.04,4.04v16.162C72.726,79.001,74.536,80.808,76.768,80.808z
				 M80.807,64.646h12.121c2.231,0,4.04-1.807,4.04-4.04V48.485h8.081v12.121c0,2.233,1.809,4.04,4.04,4.04h12.121v8.081H109.09
				c-2.231,0-4.04,1.807-4.04,4.04v12.121h-8.08v-12.12c0-2.233-1.809-4.04-4.04-4.04H80.807V64.646z"/>
		</g>
	</g>
</g>
<g>
</g>
<g>
</g>
<g>
</g>
<g>
</g>
<g>
</g>
<g>
</g>
<g>
</g>
<g>
</g>
<g>
</g>
<g>
</g>
<g>
</g>
<g>
</g>
<g>
</g>
<g>
</g>
<g>
</g>
</svg>
